<svg width="30" height="27" viewBox="0 0 30 27" fill="none" xmlns="http://www.w3.org/2000/svg">
    <path d="M0 2.69994C0 1.98387 0.278882 1.29713 0.775296 0.790795C1.27171 0.284457 1.94499 0 2.64703 0H25.5879C26.29 0 26.9632 0.284457 27.4596 0.790795C27.9561 1.29713 28.2349 1.98387 28.2349 2.69994V8.83062C27.6788 8.5855 27.0757 8.47108 26.4703 8.49582V2.69994C26.4703 2.46125 26.3773 2.23234 26.2118 2.06356C26.0464 1.89478 25.8219 1.79996 25.5879 1.79996H2.64703C2.41301 1.79996 2.18859 1.89478 2.02312 2.06356C1.85764 2.23234 1.76468 2.46125 1.76468 2.69994V18.8996C1.76468 19.1383 1.85764 19.3672 2.02312 19.536C2.18859 19.7048 2.41301 19.7996 2.64703 19.7996H7.05874V17.0996C7.05874 16.3836 7.33762 15.6968 7.83403 15.1905C8.33045 14.6842 9.00373 14.3997 9.70576 14.3997H18.5292C19.2312 14.3997 19.9045 14.6842 20.4009 15.1905C20.8973 15.6968 21.1762 16.3836 21.1762 17.0996V19.0328C20.4509 19.0562 19.8739 19.2848 19.4115 19.6034V17.0996C19.4115 16.861 19.3186 16.632 19.1531 16.4633C18.9876 16.2945 18.7632 16.1997 18.5292 16.1997H9.70576C9.47175 16.1997 9.24732 16.2945 9.08185 16.4633C8.91638 16.632 8.82342 16.861 8.82342 17.0996V19.7996H19.1521C18.5962 20.2604 18.2257 20.8364 17.9521 21.2576C17.8799 21.3736 17.8046 21.4876 17.7262 21.5996H2.64703C1.94499 21.5996 1.27171 21.3151 0.775296 20.8088C0.278882 20.3024 0 19.6157 0 18.8996V2.69994ZM14.1175 12.5997C15.2875 12.5997 16.4097 12.1256 17.237 11.2817C18.0644 10.4378 18.5292 9.29328 18.5292 8.09983C18.5292 6.90638 18.0644 5.76181 17.237 4.91792C16.4097 4.07402 15.2875 3.59993 14.1175 3.59993C12.9474 3.59993 11.8253 4.07402 10.9979 4.91792C10.1706 5.76181 9.70576 6.90638 9.70576 8.09983C9.70576 9.29328 10.1706 10.4378 10.9979 11.2817C11.8253 12.1256 12.9474 12.5997 14.1175 12.5997ZM14.1175 10.7998C13.4154 10.7998 12.7422 10.5153 12.2457 10.009C11.7493 9.50264 11.4704 8.8159 11.4704 8.09983C11.4704 7.38376 11.7493 6.69702 12.2457 6.19068C12.7422 5.68435 13.4154 5.39989 14.1175 5.39989C14.8195 5.39989 15.4928 5.68435 15.9892 6.19068C16.4856 6.69702 16.7645 7.38376 16.7645 8.09983C16.7645 8.8159 16.4856 9.50264 15.9892 10.009C15.4928 10.5153 14.8195 10.7998 14.1175 10.7998ZM24.4144 13.0767L25.1185 11.383C25.4485 10.5874 26.2391 10.1554 27.0155 10.321L27.1814 10.3642L28.0638 10.6522C28.9391 10.9384 29.6079 11.7016 29.8249 12.6609C30.3384 14.9415 29.7226 17.7188 27.9738 20.9912C26.2285 24.2599 24.3173 26.2237 22.2368 26.886C21.4286 27.1434 20.5603 26.958 19.9074 26.3983L19.7362 26.2363L19.0656 25.5505C18.7839 25.2546 18.6019 24.875 18.5461 24.4665C18.4902 24.0581 18.5634 23.6421 18.7551 23.2789L18.8539 23.1133L19.8633 21.6014C20.0468 21.3159 20.31 21.0932 20.619 20.962C20.9279 20.8307 21.2683 20.797 21.5962 20.8652L21.7727 20.9138L23.6379 21.5492C24.3809 20.9732 25.002 20.2532 25.4979 19.3802C25.9232 18.6332 26.2038 17.8772 26.3326 17.1104L26.3856 16.7253L24.8344 15.2223C24.584 14.9734 24.406 14.6588 24.3201 14.3132C24.2341 13.9675 24.2436 13.6044 24.3473 13.2639L24.4126 13.0767H24.4144Z" fill="#fff"/>
</svg>
