<svg width="27" height="29" viewBox="0 0 27 29" fill="none" xmlns="http://www.w3.org/2000/svg">
<path d="M22.9545 15.7083C22.4936 15.7083 22.0528 15.799 21.648 15.9633C21.238 14.4251 19.86 13.2917 18.2273 13.2917C17.3202 13.2917 16.4912 13.6421 15.8636 14.2172C15.6675 14.0372 15.4459 13.8892 15.2142 13.7569C16.37 12.2869 17.0455 10.4309 17.0455 8.45833C17.0455 3.79417 13.3345 0 8.77273 0C4.21091 0 0.5 3.79417 0.5 8.45833C0.5 11.745 2.37023 14.709 5.22727 16.0932V18.3365C4.85677 18.2023 4.46027 18.125 4.04545 18.125C2.09014 18.125 0.5 19.7508 0.5 21.75V29H2.86364V21.75C2.86364 21.0836 3.39368 20.5417 4.04545 20.5417C4.69723 20.5417 5.22727 21.0836 5.22727 21.75V22.9583V26.5833H7.59091V22.9583V21.75V16.9976V14.0831V8.45833C7.59091 7.79194 8.12095 7.25 8.77273 7.25C9.4245 7.25 9.95455 7.79194 9.95455 8.45833V14.0831V15.7083V16.9167V16.9976V22.9583H12.3182V16.9167C12.3182 16.2503 12.8482 15.7083 13.5 15.7083C14.1518 15.7083 14.6818 16.2503 14.6818 16.9167V22.9583H17.0455V16.9167C17.0455 16.2503 17.5755 15.7083 18.2273 15.7083C18.879 15.7083 19.4091 16.2503 19.4091 16.9167V18.125V19.3333V22.9583H21.7727V19.3333C21.7727 18.6669 22.3028 18.125 22.9545 18.125C23.6063 18.125 24.1364 18.6669 24.1364 19.3333V29H26.5V19.3333C26.5 17.3341 24.9099 15.7083 22.9545 15.7083ZM12.3182 13.2911V8.45833C12.3182 6.45915 10.728 4.83333 8.77273 4.83333C6.81741 4.83333 5.22727 6.45915 5.22727 8.45833V13.2911C3.76832 12.1715 2.86364 10.3923 2.86364 8.45833C2.86364 5.12696 5.51445 2.41667 8.77273 2.41667C12.031 2.41667 14.6818 5.12696 14.6818 8.45833C14.6818 10.3923 13.7771 12.1715 12.3182 13.2911Z" fill="white"/>
</svg>
