<svg width="50" height="50" viewBox="0 0 50 50" fill="none" xmlns="http://www.w3.org/2000/svg">
<rect width="50" height="50" rx="25" fill="#F1FCFF"/>
<path d="M19.9012 33.7235V22.065H16.0105V33.7235H19.9016H19.9012ZM17.9567 20.4736C19.3131 20.4736 20.1576 19.5783 20.1576 18.4595C20.1322 17.3153 19.3131 16.445 17.9825 16.445C16.6509 16.445 15.7812 17.3153 15.7812 18.4594C15.7812 19.5782 16.6254 20.4735 17.9312 20.4735H17.9564L17.9567 20.4736ZM22.0547 33.7235H25.9451V27.2136C25.9451 26.8656 25.9705 26.5167 26.0732 26.2682C26.3544 25.5717 26.9945 24.8508 28.0695 24.8508C29.477 24.8508 30.0404 25.9198 30.0404 27.4872V33.7235H33.9306V27.0389C33.9306 23.4581 32.0115 21.7917 29.4518 21.7917C27.3532 21.7917 26.4315 22.96 25.9195 23.7557H25.9454V22.0655H22.0549C22.1057 23.1592 22.0546 33.7239 22.0546 33.7239L22.0547 33.7235Z" fill="#182353"/>
</svg>
