<svg width="50" height="50" viewBox="0 0 50 50" fill="none" xmlns="http://www.w3.org/2000/svg">
<rect width="50" height="50" rx="25" fill="#F1FCFF"/>
<path d="M20.9804 33.6667C29.1566 33.6667 33.6286 26.9974 33.6286 21.2139C33.6286 21.0245 33.6286 20.8359 33.6156 20.6482C34.4855 20.0286 35.2365 19.2615 35.8334 18.3827C35.0221 18.7369 34.1614 18.969 33.2802 19.0713C34.2082 18.5244 34.9027 17.6641 35.2345 16.6506C34.3619 17.1604 33.4073 17.5197 32.4118 17.7129C31.7415 17.0113 30.8551 16.5466 29.8896 16.391C28.9242 16.2353 27.9335 16.3972 27.071 16.8517C26.2084 17.3062 25.522 18.0279 25.1181 18.9052C24.7141 19.7824 24.615 20.7663 24.8362 21.7046C23.0689 21.6173 21.3399 21.1651 19.7616 20.3773C18.1833 19.5895 16.7908 18.4838 15.6747 17.1318C15.1062 18.0953 14.9321 19.2359 15.1878 20.3213C15.4435 21.4068 16.1098 22.3555 17.051 22.9742C16.3435 22.9538 15.6514 22.7659 15.0334 22.4264V22.4819C15.0336 23.4924 15.3889 24.4716 16.0389 25.2536C16.6889 26.0356 17.5937 26.5721 18.5997 26.7722C17.9452 26.9479 17.2586 26.9736 16.5925 26.8473C16.8767 27.7168 17.4297 28.4772 18.1743 29.0222C18.919 29.5671 19.8179 29.8694 20.7456 29.8867C19.8239 30.5999 18.7684 31.1273 17.6396 31.4385C16.5107 31.7498 15.3306 31.8389 14.1667 31.7007C16.1996 32.9851 18.565 33.6664 20.9804 33.6633" fill="#182353"/>
</svg>
