<svg width="50" height="50" viewBox="0 0 50 50" fill="none" xmlns="http://www.w3.org/2000/svg">
<rect width="50" height="50" rx="25" fill="#F1FCFF"/>
<g clip-path="url(#clip0_2202_3181)">
<path fill-rule="evenodd" clip-rule="evenodd" d="M36.6422 17.2369C37.0456 17.6429 37.3353 18.1477 37.4823 18.7009C38.0259 20.7424 38.0259 24.9999 38.0259 24.9999C38.0259 24.9999 38.0259 29.2574 37.4823 31.299C37.3353 31.8522 37.0456 32.357 36.6422 32.763C36.2388 33.169 35.7358 33.4619 35.1837 33.6124C33.1509 34.159 25.0259 34.159 25.0259 34.159C25.0259 34.159 16.9009 34.159 14.8682 33.6124C14.316 33.4619 13.8131 33.169 13.4097 32.763C13.0063 32.357 12.7166 31.8522 12.5696 31.299C12.0259 29.2574 12.0259 24.9999 12.0259 24.9999C12.0259 24.9999 12.0259 20.7424 12.5696 18.7009C12.7166 18.1477 13.0063 17.6429 13.4097 17.2369C13.8131 16.8309 14.316 16.538 14.8682 16.3874C16.9009 15.8409 25.0259 15.8409 25.0259 15.8409C25.0259 15.8409 33.1509 15.8409 35.1837 16.3874C35.7358 16.538 36.2388 16.8309 36.6422 17.2369ZM29.1623 25L22.3668 21.134V28.866L29.1623 25Z" fill="#182353"/>
</g>
<defs>
<clipPath id="clip0_2202_3181">
<rect width="26" height="26" fill="white" transform="translate(12 12)"/>
</clipPath>
</defs>
</svg>
